{"title":"Dark Passage (1947) Humphrey Bogart, Lauren Bacall. with eng + f","uid":7116815,"size":1446429850,"categoryP":"video","categoryS":"movies","magnet":"?xt=urn:btih:df0b57ed3915d8d872ba4e63d72894ff1cdebf6d&amp;dn=Dark+Passage+%281947%29+Humphrey+Bogart%2C+Lauren+Bacall.+with+eng+%2B+f&amp;tr=udp%3A%2F%2Ftracker.openbittorrent.com%3A80&amp;tr=udp%3A%2F%2Fopen.demonii.com%3A1337&amp;tr=udp%3A%2F%2Ftracker.coppersurfer.tk%3A6969&amp;tr=udp%3A%2F%2Fexodus.desync.com%3A6969","seeders":6,"leechers":0,"uploader":"rduke15","files":7,"time":1332241011,"description":"Dark Passage (1947)\n106 min - Film-Noir | Thriller - 27 September 1947 (USA)\n\nA man convicted of murdering his wife escapes from prison and works with a woman to try and prove his innocence.\n\nDirector: Delmer Daves\nWriters: Delmer Daves (screenplay), David Goodis (novel)\nStars: Humphrey Bogart, Lauren Bacall and Bruce Bennett\n\n\nFormat : Matroska\nFile size : 1.35 GiB\nDuration : 1h 46mn\nOverall bit rate : 1 815 Kbps\nEncoded date : UTC 2012-03-09 19:04:35\nWriting application : mkvmerge v4.0.0 ('The Stars were mine') built on Jun 5 2010 15:58:29\nWriting library : libebml v1.0.0 + libmatroska v1.0.0\n\nVideo\nID : 1\nFormat : AVC\nFormat/Info : Advanced Video Codec\nFormat profile : &lt;a class=&quot;__cf_email__&quot; href=&quot;/cdn-cgi/l/email-protection&quot; data-cfemail=&quot;e4a9858d8aa4a8d7cad5&quot;&gt;[email&amp;#160;protected]&lt;/a&gt;&lt;script cf-hash='f9e31' type=&quot;text/javascript&quot;&gt;\n/* &lt;![CDATA[ */!function(){try{var t=&quot;currentScript&quot;in document?document.currentScript:function(){for(var t=document.getElementsByTagName(&quot;script&quot;),e=t.length;e--;)if(t[e].getAttribute(&quot;cf-hash&quot;))return t[e]}();if(t&amp;&amp;t.previousSibling){var e,r,n,i,c=t.previousSibling,a=c.getAttribute(&quot;data-cfemail&quot;);if(a){for(e=&quot;&quot;,r=parseInt(a.substr(0,2),16),n=2;a.length-n;n+=2)i=parseInt(a.substr(n,2),16)^r,e+=String.fromCharCode(i);e=document.createTextNode(e),c.parentNode.replaceChild(e,c)}}}catch(u){}}();/* ]]&gt; */&lt;/script&gt;\nFormat settings, CABAC : Yes\nFormat settings, ReFrames : 2 frames\nMuxing mode : Container profile=&lt;a class=&quot;__cf_email__&quot; href=&quot;/cdn-cgi/l/email-protection&quot; data-cfemail=&quot;e8bd868386879f86a8dbc6d9&quot;&gt;[email&amp;#160;protected]&lt;/a&gt;&lt;script cf-hash='f9e31' type=&quot;text/javascript&quot;&gt;\n/* &lt;![CDATA[ */!function(){try{var t=&quot;currentScript&quot;in document?document.currentScript:function(){for(var t=document.getElementsByTagName(&quot;script&quot;),e=t.length;e--;)if(t[e].getAttribute(&quot;cf-hash&quot;))return t[e]}();if(t&amp;&amp;t.previousSibling){var e,r,n,i,c=t.previousSibling,a=c.getAttribute(&quot;data-cfemail&quot;);if(a){for(e=&quot;&quot;,r=parseInt(a.substr(0,2),16),n=2;a.length-n;n+=2)i=parseInt(a.substr(n,2),16)^r,e+=String.fromCharCode(i);e=document.createTextNode(e),c.parentNode.replaceChild(e,c)}}}catch(u){}}();/* ]]&gt; */&lt;/script&gt;\nCodec ID : V_MPEG4/ISO/AVC\nDuration : 1h 46mn\nBit rate : 1 395 Kbps\nWidth : 768 pixels\nHeight : 576 pixels\nDisplay aspect ratio : 4:3\nFrame rate : 29.970 fps\nStandard : NTSC\nResolution : 8 bits\nColorimetry : 4:2:0\nScan type : Progressive\nBits/(Pixel*Frame) : 0.105\nStream size : 1.03 GiB (77%)\n\nAudio #1\nID : 2\nFormat : AC-3\nFormat/Info : Audio Coding 3\nCodec ID : A_AC3\nDuration : 1h 46mn\nBit rate mode : Constant\nBit rate : 192 Kbps\nChannel(s) : 2 channels\nChannel positions : Front: L R\nSampling rate : 48.0 KHz\nStream size : 146 MiB (11%)\nTitle : Russian voice-over\nLanguage : Russian\n\nAudio #2\nID : 3\nFormat : AC-3\nFormat/Info : Audio Coding 3\nCodec ID : A_AC3\nDuration : 1h 46mn\nBit rate mode : Constant\nBit rate : 192 Kbps\nChannel(s) : 2 channels\nChannel positions : Front: L R\nSampling rate : 48.0 KHz\nStream size : 146 MiB (11%)\nTitle : English\n\nText #1\nID : 4\nFormat : UTF-8\nCodec ID : S_TEXT/UTF8\nCodec ID/Info : UTF-8 Plain Text\nLanguage : English\n\nText #2\nID : 5\nFormat : UTF-8\nCodec ID : S_TEXT/UTF8\nCodec ID/Info : UTF-8 Plain Text\nLanguage : French","torrent":{"xt":"urn:btih:df0b57ed3915d8d872ba4e63d72894ff1cdebf6d","amp;dn":"Dark+Passage+%281947%29+Humphrey+Bogart%2C+Lauren+Bacall.+with+eng+%2B+f","amp;tr":["udp%3A%2F%2Ftracker.openbittorrent.com%3A80","udp%3A%2F%2Fopen.demonii.com%3A1337","udp%3A%2F%2Ftracker.coppersurfer.tk%3A6969","udp%3A%2F%2Fexodus.desync.com%3A6969"],"infoHash":"df0b57ed3915d8d872ba4e63d72894ff1cdebf6d","infoHashBuffer":{"type":"Buffer","data":[223,11,87,237,57,21,216,216,114,186,78,99,215,40,148,255,28,222,191,109]},"announce":[],"urlList":[]}}